<?xml version="1.0" encoding="UTF-8" standalone="no"?>
<!DOCTYPE svg PUBLIC "-//W3C//DTD SVG 1.1//EN" "http://www.w3.org/Graphics/SVG/1.1/DTD/svg11.dtd">
<svg width="100%" height="100%" viewBox="0 0 213 83" version="1.1" xmlns="http://www.w3.org/2000/svg" xmlns:xlink="http://www.w3.org/1999/xlink" xml:space="preserve" xmlns:serif="http://www.serif.com/" style="fill-rule:evenodd;clip-rule:evenodd;stroke-linecap:round;stroke-linejoin:round;stroke-miterlimit:1.5;">
    <g id="Hand" transform="matrix(0.909091,0,0,0.909091,15.3006,3.75805)">
        <g transform="matrix(1,0,0,1,-10.9252,-1.24345e-13)">
            <path d="M165.354,73.819L171.26,73.819C181.038,73.819 188.976,65.88 188.976,56.102L188.976,36.909C188.976,34.465 186.992,32.48 184.547,32.48C184.03,32.48 183.533,32.569 183.071,32.733L183.071,19.193C183.071,16.748 181.086,14.764 178.642,14.764C176.197,14.764 174.213,16.748 174.213,19.193C174.213,19.193 174.213,13.287 174.213,13.287C174.213,10.843 172.228,8.858 169.783,8.858C167.339,8.858 165.354,10.843 165.354,13.287L165.354,16.24C165.354,13.796 163.37,11.811 160.925,11.811C158.481,11.811 156.496,13.796 156.496,16.24L156.496,28.051C156.496,25.607 154.511,23.622 152.067,23.622C149.622,23.622 147.638,25.607 147.638,28.051L147.638,56.102C147.638,65.88 155.576,73.819 165.354,73.819Z" style="fill:rgb(235,235,235);"/>
        </g>
        <g id="HandOutline" transform="matrix(1,0,0,1,1.1,0)">
            <g transform="matrix(1,0,0,1,-12.1063,-6.21725e-14)">
                <path d="M165.354,73.819L171.26,73.819C181.038,73.819 188.976,65.88 188.976,56.102L188.976,36.909C188.976,34.465 186.992,32.48 184.547,32.48C184.03,32.48 183.533,32.569 183.071,32.733L183.071,19.193C183.071,16.748 181.086,14.764 178.642,14.764C176.197,14.764 174.213,16.748 174.213,19.193L174.213,13.287C174.213,10.843 172.228,8.858 169.783,8.858C167.339,8.858 165.354,10.843 165.354,13.287L165.354,16.24C165.354,13.796 163.37,11.811 160.925,11.811C158.481,11.811 156.496,13.796 156.496,16.24L156.496,28.051C156.496,25.607 154.511,23.622 152.067,23.622C149.622,23.622 147.638,25.607 147.638,28.051L147.638,56.102C147.638,65.88 155.576,73.819 165.354,73.819Z" style="fill:none;stroke:black;stroke-width:2.6px;"/>
            </g>
            <g transform="matrix(1,0,0,1,-12.1063,-6.21725e-14)">
                <path d="M156.496,26.575L156.496,41.339" style="fill:none;stroke:black;stroke-width:2.6px;"/>
            </g>
            <g transform="matrix(1,0,0,1,-12.1063,-6.21725e-14)">
                <path d="M165.354,14.764L165.354,38.386" style="fill:none;stroke:black;stroke-width:2.6px;"/>
            </g>
            <g transform="matrix(1,0,0,1,-12.1063,-6.21725e-14)">
                <path d="M174.213,17.717L174.213,38.386" style="fill:none;stroke:black;stroke-width:2.6px;"/>
            </g>
            <g transform="matrix(1,0,0,1,-12.1063,-6.21725e-14)">
                <path d="M180.118,36.909C180.118,34.465 182.103,32.48 184.547,32.48" style="fill:none;stroke:black;stroke-width:2.6px;"/>
            </g>
            <g transform="matrix(1,0,0,0.818182,-12.1063,6.71081)">
                <path d="M180.118,36.909L180.118,53.15" style="fill:none;stroke:black;stroke-width:2.84px;"/>
            </g>
            <g transform="matrix(1.33333,0,0,1.3442,-72.1457,-21.3429)">
                <path d="M173.474,62.008C173.474,57.884 176.299,54.414 180.118,53.429" style="fill:none;stroke:black;stroke-width:1.94px;"/>
            </g>
        </g>
    </g>
    <g id="Pie">
        <g transform="matrix(1,0,0,1,23.622,-4.44089e-16)">
            <path d="M23.757,17.784C24.415,14.382 27.412,11.811 31.004,11.811C33.489,11.811 35.689,13.042 37.027,14.926C47.751,16.398 52.688,27.67 52.688,41.339C52.688,55.007 47.751,66.279 37.027,67.751C35.689,69.635 33.489,70.866 31.004,70.866C27.412,70.866 24.415,68.295 23.757,64.893L23.622,64.961L17.717,63.961C14.457,63.961 11.811,54.376 11.811,41.339C11.811,28.301 14.457,18.717 17.717,18.717L23.622,17.717L23.757,17.784Z" style="fill:rgb(235,235,235);"/>
        </g>
        <g id="PieOutline">
            <g transform="matrix(1,0,0,1,23.622,0)">
                <path d="M37.027,67.751C35.689,69.635 33.489,70.866 31.004,70.866C26.93,70.866 23.622,67.558 23.622,63.484C23.622,60.315 25.623,57.61 28.43,56.564C27.276,55.262 26.575,53.549 26.575,51.673C26.575,49.26 27.736,47.115 29.529,45.768C28.601,44.534 28.051,43 28.051,41.339C28.051,39.754 28.552,38.285 29.403,37.081C27.682,35.73 26.575,33.629 26.575,31.272C26.575,29.298 27.351,27.504 28.615,26.179C25.712,25.186 23.622,22.431 23.622,19.193C23.622,15.119 26.93,11.811 31.004,11.811C33.489,11.811 35.689,13.042 37.027,14.926C47.751,16.398 52.688,27.67 52.688,41.339C52.688,55.007 47.751,66.279 37.027,67.751Z" style="fill:none;stroke:black;stroke-width:2.36px;"/>
            </g>
            <g transform="matrix(1,0,0,1,23.622,0)">
                <path d="M23.622,64.961L17.717,63.961C14.457,63.961 11.811,54.376 11.811,41.339C11.811,28.301 14.457,18.717 17.717,18.717L23.622,17.717" style="fill:none;stroke:black;stroke-width:2.36px;"/>
            </g>
            <g transform="matrix(1,0,0,1,17.622,0)">
                <path d="M53.15,41.339L47.244,41.339" style="fill:none;stroke:black;stroke-width:2.36px;"/>
            </g>
            <g transform="matrix(0.984716,0.174165,-0.174165,0.984716,23.6362,-19.9218)">
                <path d="M53.15,41.339L47.07,40.354" style="fill:none;stroke:black;stroke-width:2.36px;"/>
            </g>
            <g transform="matrix(0.984667,-0.174445,0.174445,0.984667,9.22767,21.2014)">
                <path d="M53.15,41.339L47.07,42.323" style="fill:none;stroke:black;stroke-width:2.36px;"/>
            </g>
        </g>
    </g>
    <g transform="matrix(0.657508,0,0,0.657508,18.3594,22.0786)">
        <g transform="matrix(1,0,0,1,4.56268,0)">
            <path d="M102.481,17.685L102.481,29.013L107.047,29.013C109.602,29.013 111.515,28.541 112.784,27.597C114.054,26.653 114.688,25.229 114.688,23.325C114.688,21.453 114.05,20.045 112.772,19.101C111.494,18.157 109.586,17.685 107.047,17.685L102.481,17.685ZM107.584,39.682C108.382,39.682 108.959,39.817 109.317,40.085C109.675,40.354 109.854,40.781 109.854,41.367C109.854,42.018 109.684,42.474 109.342,42.734C109,42.995 108.349,43.125 107.389,43.125L95.45,43.125C94.897,43.125 94.474,42.974 94.181,42.673C93.888,42.372 93.741,41.937 93.741,41.367C93.741,40.797 93.884,40.374 94.168,40.097C94.453,39.821 94.897,39.682 95.499,39.682L98.648,39.682L98.648,17.685L96.939,17.685C95.507,17.685 94.616,17.559 94.266,17.307C93.916,17.055 93.741,16.595 93.741,15.928C93.741,15.358 93.888,14.922 94.181,14.621C94.474,14.32 94.897,14.17 95.45,14.17L106.754,14.17C110.709,14.17 113.712,14.935 115.763,16.465C117.813,17.995 118.839,20.249 118.839,23.227C118.839,26.206 117.822,28.452 115.787,29.966C113.753,31.479 110.742,32.236 106.754,32.236L102.481,32.236L102.481,39.682L107.584,39.682Z" style="fill-rule:nonzero;"/>
        </g>
        <path d="M134.342,13.535C134.342,11.777 134.5,10.67 134.818,10.215C135.135,9.759 135.815,9.531 136.856,9.531C137.866,9.531 138.533,9.722 138.858,10.105C139.184,10.487 139.347,11.395 139.347,12.827C139.347,14.227 139.196,15.093 138.895,15.427C138.594,15.761 137.914,15.928 136.856,15.928C135.815,15.928 135.135,15.773 134.818,15.464C134.5,15.154 134.342,14.511 134.342,13.535ZM138.858,39.682L146.695,39.682C147.33,39.682 147.798,39.817 148.099,40.085C148.4,40.354 148.551,40.781 148.551,41.367C148.551,42.034 148.408,42.494 148.124,42.746C147.839,42.999 147.314,43.125 146.549,43.125L127.604,43.125C126.952,43.125 126.464,42.978 126.139,42.685C125.813,42.392 125.65,41.953 125.65,41.367C125.65,40.797 125.821,40.374 126.163,40.097C126.505,39.821 127.018,39.682 127.701,39.682L135.147,39.682L135.147,24.033L130.387,24.033C129.719,24.033 129.211,23.882 128.861,23.581C128.511,23.28 128.336,22.845 128.336,22.275C128.336,21.706 128.499,21.278 128.824,20.993C129.15,20.709 129.638,20.566 130.289,20.566L137.442,20.566C137.882,20.566 138.228,20.656 138.48,20.835C138.732,21.014 138.858,21.258 138.858,21.567L138.858,39.682Z" style="fill-rule:nonzero;"/>
        <g transform="matrix(1,0,0,1,-4.16304,-0.805664)">
            <path d="M161.1,24.033C162.174,23.642 163.167,23.353 164.078,23.166C164.99,22.979 165.86,22.886 166.69,22.886C169.539,22.886 171.911,23.874 173.807,25.852C175.703,27.829 176.651,30.283 176.651,33.213C176.651,36.321 175.602,38.885 173.502,40.903C171.402,42.921 168.717,43.93 165.445,43.93C162.711,43.93 160.42,43.56 158.573,42.82C156.725,42.079 155.802,41.18 155.802,40.122C155.802,39.699 155.973,39.32 156.314,38.987C156.656,38.653 157.055,38.486 157.511,38.486C157.69,38.486 158.646,38.799 160.379,39.426C162.113,40.053 163.72,40.366 165.201,40.366C167.382,40.366 169.152,39.711 170.511,38.401C171.87,37.09 172.55,35.402 172.55,33.335C172.55,31.317 171.907,29.636 170.621,28.293C169.335,26.95 167.716,26.279 165.763,26.279C164.298,26.279 162.861,26.645 161.454,27.378C160.046,28.11 159.195,28.476 158.902,28.476C158.414,28.476 158.068,28.297 157.865,27.939C157.661,27.581 157.56,26.93 157.56,25.986L157.56,13.828C157.56,13.291 157.726,12.904 158.06,12.668C158.394,12.432 158.976,12.314 159.806,12.314L172.159,12.314C172.94,12.314 173.526,12.473 173.917,12.79C174.308,13.108 174.503,13.584 174.503,14.219C174.503,14.821 174.299,15.289 173.893,15.622C173.486,15.956 172.908,16.123 172.159,16.123L161.1,16.123L161.1,24.033Z" style="fill-rule:nonzero;"/>
        </g>
    </g>
    <g id="Woosh">
        <g transform="matrix(1,0,0,1,-7.10543e-15,1.47638)">
            <path d="M35.433,35.433L11.811,35.433" style="fill:none;stroke:black;stroke-width:2.5px;"/>
        </g>
        <g transform="matrix(0.4,0,0,1,10.6299,1.47638)">
            <path d="M32.48,53.15L17.717,53.15" style="fill:none;stroke:black;stroke-width:3.28px;"/>
        </g>
        <g transform="matrix(0.305458,0,0,0.763644,25.5117,14.1096)">
            <path d="M32.48,53.15L17.717,53.15" style="fill:none;stroke:black;stroke-width:4.3px;"/>
        </g>
        <g transform="matrix(1.66667,0,0,1,-9.84252,2.41589)">
            <path d="M23.622,43.352L14.764,43.352" style="fill:none;stroke:black;stroke-width:1.82px;"/>
        </g>
        <g transform="matrix(1,0,0,1,-1.06581e-14,-1.47638)">
            <path d="M32.48,20.669L20.669,20.669" style="fill:none;stroke:black;stroke-width:2.5px;"/>
        </g>
        <g transform="matrix(1,0,0,1,8.85827,3.12921)">
            <path d="M26.575,60.355L14.764,60.271" style="fill:none;stroke:black;stroke-width:2.5px;"/>
        </g>
        <g transform="matrix(1,0,0,1,-0.0391438,1.47638)">
            <path d="M16.318,26.575L25.098,26.575" style="fill:none;stroke:black;stroke-width:2.5px;"/>
        </g>
        <g transform="matrix(-0.6875,0,0,1,207.431,4.42913)">
            <path d="M35.433,35.433L11.811,35.433" style="fill:none;stroke:black;stroke-width:2.91px;"/>
        </g>
        <g transform="matrix(-0.6,0,0,1,202.559,3.9608)">
            <path d="M32.48,53.15L17.717,53.15" style="fill:none;stroke:black;stroke-width:3.03px;"/>
        </g>
        <g transform="matrix(-0.4,0,0,0.572613,187.205,34.5265)">
            <path d="M32.48,53.15L17.717,53.15" style="fill:none;stroke:black;stroke-width:5.06px;"/>
        </g>
        <g transform="matrix(-2,0,0,1,224.409,5.36865)">
            <path d="M23.622,43.352L14.764,43.352" style="fill:none;stroke:black;stroke-width:1.58px;"/>
        </g>
        <g transform="matrix(-0.75,0,0,1,203.002,1.47638)">
            <path d="M32.48,20.669L20.669,20.669" style="fill:none;stroke:black;stroke-width:2.83px;"/>
        </g>
        <g transform="matrix(-0.625019,-0.00266509,0.00266509,0.999981,203.949,4.7615)">
            <path d="M26.575,60.355L14.764,60.271" style="fill:none;stroke:black;stroke-width:3.01px;"/>
        </g>
        <g transform="matrix(-1.48774,0,0,1,222.112,4.50171)">
            <path d="M16.318,26.575L25.098,26.575" style="fill:none;stroke:black;stroke-width:1.97px;"/>
        </g>
    </g>
</svg>
