<?xml version="1.0" encoding="UTF-8" standalone="no"?>
<!DOCTYPE svg PUBLIC "-//W3C//DTD SVG 1.1//EN" "http://www.w3.org/Graphics/SVG/1.1/DTD/svg11.dtd">
<svg width="100%" height="100%" viewBox="0 0 213 83" version="1.1" xmlns="http://www.w3.org/2000/svg" xmlns:xlink="http://www.w3.org/1999/xlink" xml:space="preserve" xmlns:serif="http://www.serif.com/" style="fill-rule:evenodd;clip-rule:evenodd;stroke-linejoin:round;stroke-miterlimit:2;">
    <g transform="matrix(0.909091,0,0,0.909091,5.36865,3.75805)">
        <g id="Hand">
            <path d="M165.354,73.819L171.26,73.819C181.038,73.819 188.976,65.88 188.976,56.102L188.976,36.909C188.976,34.465 186.992,32.48 184.547,32.48C184.03,32.48 183.533,32.569 183.071,32.733L183.071,19.193C183.071,16.748 181.086,14.764 178.642,14.764C176.197,14.764 174.213,16.748 174.213,19.193C174.213,19.193 174.213,13.287 174.213,13.287C174.213,10.843 172.228,8.858 169.783,8.858C167.339,8.858 165.354,10.843 165.354,13.287L165.354,16.24C165.354,13.796 163.37,11.811 160.925,11.811C158.481,11.811 156.496,13.796 156.496,16.24L156.496,28.051C156.496,25.607 154.511,23.622 152.067,23.622C149.622,23.622 147.638,25.607 147.638,28.051L147.638,56.102C147.638,65.88 155.576,73.819 165.354,73.819Z" style="fill:rgb(235,235,235);"/>
        </g>
    </g>
    <g transform="matrix(1,0,0,1,23.622,0)">
        <g id="Pie">
            <path d="M23.757,17.784C24.415,14.382 27.412,11.811 31.004,11.811C33.489,11.811 35.689,13.042 37.027,14.926C47.751,16.398 52.688,27.67 52.688,41.339C52.688,55.007 47.751,66.279 37.027,67.751C35.689,69.635 33.489,70.866 31.004,70.866C27.412,70.866 24.415,68.295 23.757,64.893L23.622,64.961L17.717,63.961C14.457,63.961 11.811,54.376 11.811,41.339C11.811,28.301 14.457,18.717 17.717,18.717L23.622,17.717L23.757,17.784Z" style="fill:rgb(235,235,235);"/>
        </g>
    </g>
</svg>
